<mxfile host="app.diagrams.net" agent="Mozilla/5.0 (Windows NT 10.0; Win64; x64) AppleWebKit/537.36 (KHTML, like Gecko) Chrome/133.0.0.0 Safari/537.36" version="26.0.16">
  <diagram id="R2lEEEUBdFMjLlhIrx00" name="Page-1">
    <mxGraphModel dx="1421" dy="772" grid="1" gridSize="10" guides="1" tooltips="1" connect="1" arrows="1" fold="1" page="1" pageScale="1" pageWidth="850" pageHeight="1100" math="0" shadow="0" extFonts="Permanent Marker^https://fonts.googleapis.com/css?family=Permanent+Marker">
      <root>
        <mxCell id="0" />
        <mxCell id="1" parent="0" />
        <mxCell id="C-vyLk0tnHw3VtMMgP7b-23" value="PATIENT" style="shape=table;startSize=30;container=1;collapsible=1;childLayout=tableLayout;fixedRows=1;rowLines=0;fontStyle=1;align=center;resizeLast=1;" parent="1" vertex="1">
          <mxGeometry x="30" y="160" width="270" height="150" as="geometry" />
        </mxCell>
        <mxCell id="iC18hV_ZK2HDQ8afC-E5-138" value="" style="shape=partialRectangle;collapsible=0;dropTarget=0;pointerEvents=0;fillColor=none;points=[[0,0.5],[1,0.5]];portConstraint=eastwest;top=0;left=0;right=0;bottom=1;" vertex="1" parent="C-vyLk0tnHw3VtMMgP7b-23">
          <mxGeometry y="30" width="270" height="30" as="geometry" />
        </mxCell>
        <mxCell id="iC18hV_ZK2HDQ8afC-E5-139" value="PK" style="shape=partialRectangle;overflow=hidden;connectable=0;fillColor=none;top=0;left=0;bottom=0;right=0;fontStyle=1;" vertex="1" parent="iC18hV_ZK2HDQ8afC-E5-138">
          <mxGeometry width="30" height="30" as="geometry">
            <mxRectangle width="30" height="30" as="alternateBounds" />
          </mxGeometry>
        </mxCell>
        <mxCell id="iC18hV_ZK2HDQ8afC-E5-140" value="PAT_ID" style="shape=partialRectangle;overflow=hidden;connectable=0;fillColor=none;top=0;left=0;bottom=0;right=0;align=left;spacingLeft=6;fontStyle=0;" vertex="1" parent="iC18hV_ZK2HDQ8afC-E5-138">
          <mxGeometry x="30" width="240" height="30" as="geometry">
            <mxRectangle width="240" height="30" as="alternateBounds" />
          </mxGeometry>
        </mxCell>
        <mxCell id="iC18hV_ZK2HDQ8afC-E5-21" style="shape=partialRectangle;collapsible=0;dropTarget=0;pointerEvents=0;fillColor=none;points=[[0,0.5],[1,0.5]];portConstraint=eastwest;top=0;left=0;right=0;bottom=0;" vertex="1" parent="C-vyLk0tnHw3VtMMgP7b-23">
          <mxGeometry y="60" width="270" height="30" as="geometry" />
        </mxCell>
        <mxCell id="iC18hV_ZK2HDQ8afC-E5-22" style="shape=partialRectangle;overflow=hidden;connectable=0;fillColor=none;top=0;left=0;bottom=0;right=0;" vertex="1" parent="iC18hV_ZK2HDQ8afC-E5-21">
          <mxGeometry width="30" height="30" as="geometry">
            <mxRectangle width="30" height="30" as="alternateBounds" />
          </mxGeometry>
        </mxCell>
        <mxCell id="iC18hV_ZK2HDQ8afC-E5-23" value="PAT_NAME" style="shape=partialRectangle;overflow=hidden;connectable=0;fillColor=none;top=0;left=0;bottom=0;right=0;align=left;spacingLeft=6;" vertex="1" parent="iC18hV_ZK2HDQ8afC-E5-21">
          <mxGeometry x="30" width="240" height="30" as="geometry">
            <mxRectangle width="240" height="30" as="alternateBounds" />
          </mxGeometry>
        </mxCell>
        <mxCell id="iC18hV_ZK2HDQ8afC-E5-28" value="" style="endArrow=none;html=1;rounded=0;entryX=1;entryY=-0.007;entryDx=0;entryDy=0;entryPerimeter=0;exitX=-0.008;exitY=0.056;exitDx=0;exitDy=0;exitPerimeter=0;" edge="1" parent="C-vyLk0tnHw3VtMMgP7b-23" source="iC18hV_ZK2HDQ8afC-E5-29" target="iC18hV_ZK2HDQ8afC-E5-29">
          <mxGeometry width="50" height="50" relative="1" as="geometry">
            <mxPoint x="1.354472090042691e-14" y="120.00000000000016" as="sourcePoint" />
            <mxPoint x="273.5100000000001" y="120.21000000000008" as="targetPoint" />
          </mxGeometry>
        </mxCell>
        <mxCell id="iC18hV_ZK2HDQ8afC-E5-29" style="shape=partialRectangle;collapsible=0;dropTarget=0;pointerEvents=0;fillColor=none;points=[[0,0.5],[1,0.5]];portConstraint=eastwest;top=0;left=0;right=0;bottom=0;" vertex="1" parent="C-vyLk0tnHw3VtMMgP7b-23">
          <mxGeometry y="90" width="270" height="30" as="geometry" />
        </mxCell>
        <mxCell id="iC18hV_ZK2HDQ8afC-E5-30" style="shape=partialRectangle;overflow=hidden;connectable=0;fillColor=none;top=0;left=0;bottom=0;right=0;" vertex="1" parent="iC18hV_ZK2HDQ8afC-E5-29">
          <mxGeometry width="30" height="30" as="geometry">
            <mxRectangle width="30" height="30" as="alternateBounds" />
          </mxGeometry>
        </mxCell>
        <mxCell id="iC18hV_ZK2HDQ8afC-E5-31" value="PAT_DOB" style="shape=partialRectangle;overflow=hidden;connectable=0;fillColor=none;top=0;left=0;bottom=0;right=0;align=left;spacingLeft=6;" vertex="1" parent="iC18hV_ZK2HDQ8afC-E5-29">
          <mxGeometry x="30" width="240" height="30" as="geometry">
            <mxRectangle width="240" height="30" as="alternateBounds" />
          </mxGeometry>
        </mxCell>
        <mxCell id="C-vyLk0tnHw3VtMMgP7b-27" value="" style="shape=partialRectangle;collapsible=0;dropTarget=0;pointerEvents=0;fillColor=none;points=[[0,0.5],[1,0.5]];portConstraint=eastwest;top=0;left=0;right=0;bottom=0;" parent="C-vyLk0tnHw3VtMMgP7b-23" vertex="1">
          <mxGeometry y="120" width="270" height="30" as="geometry" />
        </mxCell>
        <mxCell id="C-vyLk0tnHw3VtMMgP7b-28" value="" style="shape=partialRectangle;overflow=hidden;connectable=0;fillColor=none;top=0;left=0;bottom=0;right=0;" parent="C-vyLk0tnHw3VtMMgP7b-27" vertex="1">
          <mxGeometry width="30" height="30" as="geometry">
            <mxRectangle width="30" height="30" as="alternateBounds" />
          </mxGeometry>
        </mxCell>
        <mxCell id="C-vyLk0tnHw3VtMMgP7b-29" value="PAT_CONTACTNUMBER" style="shape=partialRectangle;overflow=hidden;connectable=0;fillColor=none;top=0;left=0;bottom=0;right=0;align=left;spacingLeft=6;" parent="C-vyLk0tnHw3VtMMgP7b-27" vertex="1">
          <mxGeometry x="30" width="240" height="30" as="geometry">
            <mxRectangle width="240" height="30" as="alternateBounds" />
          </mxGeometry>
        </mxCell>
        <mxCell id="iC18hV_ZK2HDQ8afC-E5-27" value="" style="endArrow=none;html=1;rounded=0;entryX=1;entryY=0;entryDx=0;entryDy=0;entryPerimeter=0;exitX=-0.006;exitY=-0.017;exitDx=0;exitDy=0;exitPerimeter=0;" edge="1" parent="C-vyLk0tnHw3VtMMgP7b-23" source="C-vyLk0tnHw3VtMMgP7b-27" target="C-vyLk0tnHw3VtMMgP7b-27">
          <mxGeometry width="50" height="50" relative="1" as="geometry">
            <mxPoint x="40" y="180" as="sourcePoint" />
            <mxPoint x="80" y="140" as="targetPoint" />
          </mxGeometry>
        </mxCell>
        <mxCell id="iC18hV_ZK2HDQ8afC-E5-32" value="DOCTOR" style="shape=table;startSize=30;container=1;collapsible=1;childLayout=tableLayout;fixedRows=1;rowLines=0;fontStyle=1;align=center;resizeLast=1;" vertex="1" parent="1">
          <mxGeometry x="500" y="620" width="270" height="150" as="geometry" />
        </mxCell>
        <mxCell id="iC18hV_ZK2HDQ8afC-E5-33" value="" style="shape=partialRectangle;collapsible=0;dropTarget=0;pointerEvents=0;fillColor=none;points=[[0,0.5],[1,0.5]];portConstraint=eastwest;top=0;left=0;right=0;bottom=1;" vertex="1" parent="iC18hV_ZK2HDQ8afC-E5-32">
          <mxGeometry y="30" width="270" height="30" as="geometry" />
        </mxCell>
        <mxCell id="iC18hV_ZK2HDQ8afC-E5-34" value="PK" style="shape=partialRectangle;overflow=hidden;connectable=0;fillColor=none;top=0;left=0;bottom=0;right=0;fontStyle=1;" vertex="1" parent="iC18hV_ZK2HDQ8afC-E5-33">
          <mxGeometry width="30" height="30" as="geometry">
            <mxRectangle width="30" height="30" as="alternateBounds" />
          </mxGeometry>
        </mxCell>
        <mxCell id="iC18hV_ZK2HDQ8afC-E5-35" value="DOC_ID" style="shape=partialRectangle;overflow=hidden;connectable=0;fillColor=none;top=0;left=0;bottom=0;right=0;align=left;spacingLeft=6;fontStyle=0;" vertex="1" parent="iC18hV_ZK2HDQ8afC-E5-33">
          <mxGeometry x="30" width="240" height="30" as="geometry">
            <mxRectangle width="240" height="30" as="alternateBounds" />
          </mxGeometry>
        </mxCell>
        <mxCell id="iC18hV_ZK2HDQ8afC-E5-36" style="shape=partialRectangle;collapsible=0;dropTarget=0;pointerEvents=0;fillColor=none;points=[[0,0.5],[1,0.5]];portConstraint=eastwest;top=0;left=0;right=0;bottom=0;" vertex="1" parent="iC18hV_ZK2HDQ8afC-E5-32">
          <mxGeometry y="60" width="270" height="30" as="geometry" />
        </mxCell>
        <mxCell id="iC18hV_ZK2HDQ8afC-E5-37" style="shape=partialRectangle;overflow=hidden;connectable=0;fillColor=none;top=0;left=0;bottom=0;right=0;" vertex="1" parent="iC18hV_ZK2HDQ8afC-E5-36">
          <mxGeometry width="30" height="30" as="geometry">
            <mxRectangle width="30" height="30" as="alternateBounds" />
          </mxGeometry>
        </mxCell>
        <mxCell id="iC18hV_ZK2HDQ8afC-E5-38" value="DOC_NAME" style="shape=partialRectangle;overflow=hidden;connectable=0;fillColor=none;top=0;left=0;bottom=0;right=0;align=left;spacingLeft=6;" vertex="1" parent="iC18hV_ZK2HDQ8afC-E5-36">
          <mxGeometry x="30" width="240" height="30" as="geometry">
            <mxRectangle width="240" height="30" as="alternateBounds" />
          </mxGeometry>
        </mxCell>
        <mxCell id="iC18hV_ZK2HDQ8afC-E5-39" value="" style="endArrow=none;html=1;rounded=0;entryX=1.006;entryY=-0.003;entryDx=0;entryDy=0;entryPerimeter=0;exitX=-0.007;exitY=-0.01;exitDx=0;exitDy=0;exitPerimeter=0;" edge="1" parent="iC18hV_ZK2HDQ8afC-E5-32">
          <mxGeometry width="50" height="50" relative="1" as="geometry">
            <mxPoint x="-1.7599999999999865" y="90.00000000000016" as="sourcePoint" />
            <mxPoint x="271.7500000000001" y="90.21000000000008" as="targetPoint" />
          </mxGeometry>
        </mxCell>
        <mxCell id="iC18hV_ZK2HDQ8afC-E5-40" style="shape=partialRectangle;collapsible=0;dropTarget=0;pointerEvents=0;fillColor=none;points=[[0,0.5],[1,0.5]];portConstraint=eastwest;top=0;left=0;right=0;bottom=0;" vertex="1" parent="iC18hV_ZK2HDQ8afC-E5-32">
          <mxGeometry y="90" width="270" height="30" as="geometry" />
        </mxCell>
        <mxCell id="iC18hV_ZK2HDQ8afC-E5-41" style="shape=partialRectangle;overflow=hidden;connectable=0;fillColor=none;top=0;left=0;bottom=0;right=0;" vertex="1" parent="iC18hV_ZK2HDQ8afC-E5-40">
          <mxGeometry width="30" height="30" as="geometry">
            <mxRectangle width="30" height="30" as="alternateBounds" />
          </mxGeometry>
        </mxCell>
        <mxCell id="iC18hV_ZK2HDQ8afC-E5-42" value="DOC_SPECIALIZATION" style="shape=partialRectangle;overflow=hidden;connectable=0;fillColor=none;top=0;left=0;bottom=0;right=0;align=left;spacingLeft=6;" vertex="1" parent="iC18hV_ZK2HDQ8afC-E5-40">
          <mxGeometry x="30" width="240" height="30" as="geometry">
            <mxRectangle width="240" height="30" as="alternateBounds" />
          </mxGeometry>
        </mxCell>
        <mxCell id="iC18hV_ZK2HDQ8afC-E5-43" value="" style="shape=partialRectangle;collapsible=0;dropTarget=0;pointerEvents=0;fillColor=none;points=[[0,0.5],[1,0.5]];portConstraint=eastwest;top=0;left=0;right=0;bottom=0;" vertex="1" parent="iC18hV_ZK2HDQ8afC-E5-32">
          <mxGeometry y="120" width="270" height="30" as="geometry" />
        </mxCell>
        <mxCell id="iC18hV_ZK2HDQ8afC-E5-44" value="" style="shape=partialRectangle;overflow=hidden;connectable=0;fillColor=none;top=0;left=0;bottom=0;right=0;" vertex="1" parent="iC18hV_ZK2HDQ8afC-E5-43">
          <mxGeometry width="30" height="30" as="geometry">
            <mxRectangle width="30" height="30" as="alternateBounds" />
          </mxGeometry>
        </mxCell>
        <mxCell id="iC18hV_ZK2HDQ8afC-E5-45" value="DOC_CONTACTNUMBER" style="shape=partialRectangle;overflow=hidden;connectable=0;fillColor=none;top=0;left=0;bottom=0;right=0;align=left;spacingLeft=6;" vertex="1" parent="iC18hV_ZK2HDQ8afC-E5-43">
          <mxGeometry x="30" width="240" height="30" as="geometry">
            <mxRectangle width="240" height="30" as="alternateBounds" />
          </mxGeometry>
        </mxCell>
        <mxCell id="iC18hV_ZK2HDQ8afC-E5-46" value="" style="endArrow=none;html=1;rounded=0;entryX=1;entryY=0;entryDx=0;entryDy=0;entryPerimeter=0;exitX=0.007;exitY=0.921;exitDx=0;exitDy=0;exitPerimeter=0;" edge="1" parent="iC18hV_ZK2HDQ8afC-E5-32" target="iC18hV_ZK2HDQ8afC-E5-43" source="iC18hV_ZK2HDQ8afC-E5-40">
          <mxGeometry width="50" height="50" relative="1" as="geometry">
            <mxPoint x="-10" y="190" as="sourcePoint" />
            <mxPoint x="30" y="150" as="targetPoint" />
          </mxGeometry>
        </mxCell>
        <mxCell id="iC18hV_ZK2HDQ8afC-E5-47" value="APPOINTMENT" style="shape=table;startSize=30;container=1;collapsible=1;childLayout=tableLayout;fixedRows=1;rowLines=0;fontStyle=1;align=center;resizeLast=1;" vertex="1" parent="1">
          <mxGeometry x="30" y="460" width="270" height="180" as="geometry" />
        </mxCell>
        <mxCell id="iC18hV_ZK2HDQ8afC-E5-48" value="" style="shape=partialRectangle;collapsible=0;dropTarget=0;pointerEvents=0;fillColor=none;points=[[0,0.5],[1,0.5]];portConstraint=eastwest;top=0;left=0;right=0;bottom=1;" vertex="1" parent="iC18hV_ZK2HDQ8afC-E5-47">
          <mxGeometry y="30" width="270" height="30" as="geometry" />
        </mxCell>
        <mxCell id="iC18hV_ZK2HDQ8afC-E5-49" value="PK" style="shape=partialRectangle;overflow=hidden;connectable=0;fillColor=none;top=0;left=0;bottom=0;right=0;fontStyle=1;" vertex="1" parent="iC18hV_ZK2HDQ8afC-E5-48">
          <mxGeometry width="30" height="30" as="geometry">
            <mxRectangle width="30" height="30" as="alternateBounds" />
          </mxGeometry>
        </mxCell>
        <mxCell id="iC18hV_ZK2HDQ8afC-E5-50" value="APP_ID" style="shape=partialRectangle;overflow=hidden;connectable=0;fillColor=none;top=0;left=0;bottom=0;right=0;align=left;spacingLeft=6;fontStyle=0;" vertex="1" parent="iC18hV_ZK2HDQ8afC-E5-48">
          <mxGeometry x="30" width="240" height="30" as="geometry">
            <mxRectangle width="240" height="30" as="alternateBounds" />
          </mxGeometry>
        </mxCell>
        <mxCell id="iC18hV_ZK2HDQ8afC-E5-51" style="shape=partialRectangle;collapsible=0;dropTarget=0;pointerEvents=0;fillColor=none;points=[[0,0.5],[1,0.5]];portConstraint=eastwest;top=0;left=0;right=0;bottom=0;" vertex="1" parent="iC18hV_ZK2HDQ8afC-E5-47">
          <mxGeometry y="60" width="270" height="30" as="geometry" />
        </mxCell>
        <mxCell id="iC18hV_ZK2HDQ8afC-E5-52" value="FK" style="shape=partialRectangle;overflow=hidden;connectable=0;fillColor=none;top=0;left=0;bottom=0;right=0;fontStyle=1" vertex="1" parent="iC18hV_ZK2HDQ8afC-E5-51">
          <mxGeometry width="30" height="30" as="geometry">
            <mxRectangle width="30" height="30" as="alternateBounds" />
          </mxGeometry>
        </mxCell>
        <mxCell id="iC18hV_ZK2HDQ8afC-E5-53" value="PAT_ID" style="shape=partialRectangle;overflow=hidden;connectable=0;fillColor=none;top=0;left=0;bottom=0;right=0;align=left;spacingLeft=6;" vertex="1" parent="iC18hV_ZK2HDQ8afC-E5-51">
          <mxGeometry x="30" width="240" height="30" as="geometry">
            <mxRectangle width="240" height="30" as="alternateBounds" />
          </mxGeometry>
        </mxCell>
        <mxCell id="iC18hV_ZK2HDQ8afC-E5-54" value="" style="endArrow=none;html=1;rounded=0;entryX=1.006;entryY=-0.003;entryDx=0;entryDy=0;entryPerimeter=0;exitX=-0.007;exitY=-0.01;exitDx=0;exitDy=0;exitPerimeter=0;" edge="1" parent="iC18hV_ZK2HDQ8afC-E5-47">
          <mxGeometry width="50" height="50" relative="1" as="geometry">
            <mxPoint x="-1.7599999999999865" y="90.00000000000016" as="sourcePoint" />
            <mxPoint x="271.7500000000001" y="90.21000000000008" as="targetPoint" />
          </mxGeometry>
        </mxCell>
        <mxCell id="iC18hV_ZK2HDQ8afC-E5-55" style="shape=partialRectangle;collapsible=0;dropTarget=0;pointerEvents=0;fillColor=none;points=[[0,0.5],[1,0.5]];portConstraint=eastwest;top=0;left=0;right=0;bottom=0;" vertex="1" parent="iC18hV_ZK2HDQ8afC-E5-47">
          <mxGeometry y="90" width="270" height="30" as="geometry" />
        </mxCell>
        <mxCell id="iC18hV_ZK2HDQ8afC-E5-56" value="FK" style="shape=partialRectangle;overflow=hidden;connectable=0;fillColor=none;top=0;left=0;bottom=0;right=0;fontStyle=1" vertex="1" parent="iC18hV_ZK2HDQ8afC-E5-55">
          <mxGeometry width="30" height="30" as="geometry">
            <mxRectangle width="30" height="30" as="alternateBounds" />
          </mxGeometry>
        </mxCell>
        <mxCell id="iC18hV_ZK2HDQ8afC-E5-57" value="DOC_ID" style="shape=partialRectangle;overflow=hidden;connectable=0;fillColor=none;top=0;left=0;bottom=0;right=0;align=left;spacingLeft=6;" vertex="1" parent="iC18hV_ZK2HDQ8afC-E5-55">
          <mxGeometry x="30" width="240" height="30" as="geometry">
            <mxRectangle width="240" height="30" as="alternateBounds" />
          </mxGeometry>
        </mxCell>
        <mxCell id="iC18hV_ZK2HDQ8afC-E5-58" value="" style="shape=partialRectangle;collapsible=0;dropTarget=0;pointerEvents=0;fillColor=none;points=[[0,0.5],[1,0.5]];portConstraint=eastwest;top=0;left=0;right=0;bottom=0;" vertex="1" parent="iC18hV_ZK2HDQ8afC-E5-47">
          <mxGeometry y="120" width="270" height="30" as="geometry" />
        </mxCell>
        <mxCell id="iC18hV_ZK2HDQ8afC-E5-59" value="" style="shape=partialRectangle;overflow=hidden;connectable=0;fillColor=none;top=0;left=0;bottom=0;right=0;" vertex="1" parent="iC18hV_ZK2HDQ8afC-E5-58">
          <mxGeometry width="30" height="30" as="geometry">
            <mxRectangle width="30" height="30" as="alternateBounds" />
          </mxGeometry>
        </mxCell>
        <mxCell id="iC18hV_ZK2HDQ8afC-E5-60" value="APP_DATE" style="shape=partialRectangle;overflow=hidden;connectable=0;fillColor=none;top=0;left=0;bottom=0;right=0;align=left;spacingLeft=6;" vertex="1" parent="iC18hV_ZK2HDQ8afC-E5-58">
          <mxGeometry x="30" width="240" height="30" as="geometry">
            <mxRectangle width="240" height="30" as="alternateBounds" />
          </mxGeometry>
        </mxCell>
        <mxCell id="iC18hV_ZK2HDQ8afC-E5-125" style="shape=partialRectangle;collapsible=0;dropTarget=0;pointerEvents=0;fillColor=none;points=[[0,0.5],[1,0.5]];portConstraint=eastwest;top=0;left=0;right=0;bottom=0;" vertex="1" parent="iC18hV_ZK2HDQ8afC-E5-47">
          <mxGeometry y="150" width="270" height="30" as="geometry" />
        </mxCell>
        <mxCell id="iC18hV_ZK2HDQ8afC-E5-126" style="shape=partialRectangle;overflow=hidden;connectable=0;fillColor=none;top=0;left=0;bottom=0;right=0;" vertex="1" parent="iC18hV_ZK2HDQ8afC-E5-125">
          <mxGeometry width="30" height="30" as="geometry">
            <mxRectangle width="30" height="30" as="alternateBounds" />
          </mxGeometry>
        </mxCell>
        <mxCell id="iC18hV_ZK2HDQ8afC-E5-127" value="APP_TIME" style="shape=partialRectangle;overflow=hidden;connectable=0;fillColor=none;top=0;left=0;bottom=0;right=0;align=left;spacingLeft=6;" vertex="1" parent="iC18hV_ZK2HDQ8afC-E5-125">
          <mxGeometry x="30" width="240" height="30" as="geometry">
            <mxRectangle width="240" height="30" as="alternateBounds" />
          </mxGeometry>
        </mxCell>
        <mxCell id="iC18hV_ZK2HDQ8afC-E5-61" value="" style="endArrow=none;html=1;rounded=0;entryX=1;entryY=0;entryDx=0;entryDy=0;entryPerimeter=0;exitX=-0.001;exitY=0.003;exitDx=0;exitDy=0;exitPerimeter=0;" edge="1" parent="iC18hV_ZK2HDQ8afC-E5-47" target="iC18hV_ZK2HDQ8afC-E5-58" source="iC18hV_ZK2HDQ8afC-E5-58">
          <mxGeometry width="50" height="50" relative="1" as="geometry">
            <mxPoint x="-40" y="120" as="sourcePoint" />
            <mxPoint y="80" as="targetPoint" />
          </mxGeometry>
        </mxCell>
        <mxCell id="iC18hV_ZK2HDQ8afC-E5-77" value="ROOM" style="shape=table;startSize=30;container=1;collapsible=1;childLayout=tableLayout;fixedRows=1;rowLines=0;fontStyle=1;align=center;resizeLast=1;" vertex="1" parent="1">
          <mxGeometry x="550" y="160" width="270" height="120" as="geometry" />
        </mxCell>
        <mxCell id="iC18hV_ZK2HDQ8afC-E5-78" value="" style="shape=partialRectangle;collapsible=0;dropTarget=0;pointerEvents=0;fillColor=none;points=[[0,0.5],[1,0.5]];portConstraint=eastwest;top=0;left=0;right=0;bottom=1;" vertex="1" parent="iC18hV_ZK2HDQ8afC-E5-77">
          <mxGeometry y="30" width="270" height="30" as="geometry" />
        </mxCell>
        <mxCell id="iC18hV_ZK2HDQ8afC-E5-79" value="PK" style="shape=partialRectangle;overflow=hidden;connectable=0;fillColor=none;top=0;left=0;bottom=0;right=0;fontStyle=1;" vertex="1" parent="iC18hV_ZK2HDQ8afC-E5-78">
          <mxGeometry width="30" height="30" as="geometry">
            <mxRectangle width="30" height="30" as="alternateBounds" />
          </mxGeometry>
        </mxCell>
        <mxCell id="iC18hV_ZK2HDQ8afC-E5-80" value="ROOM_NUM" style="shape=partialRectangle;overflow=hidden;connectable=0;fillColor=none;top=0;left=0;bottom=0;right=0;align=left;spacingLeft=6;fontStyle=0;" vertex="1" parent="iC18hV_ZK2HDQ8afC-E5-78">
          <mxGeometry x="30" width="240" height="30" as="geometry">
            <mxRectangle width="240" height="30" as="alternateBounds" />
          </mxGeometry>
        </mxCell>
        <mxCell id="iC18hV_ZK2HDQ8afC-E5-81" style="shape=partialRectangle;collapsible=0;dropTarget=0;pointerEvents=0;fillColor=none;points=[[0,0.5],[1,0.5]];portConstraint=eastwest;top=0;left=0;right=0;bottom=0;" vertex="1" parent="iC18hV_ZK2HDQ8afC-E5-77">
          <mxGeometry y="60" width="270" height="30" as="geometry" />
        </mxCell>
        <mxCell id="iC18hV_ZK2HDQ8afC-E5-82" style="shape=partialRectangle;overflow=hidden;connectable=0;fillColor=none;top=0;left=0;bottom=0;right=0;" vertex="1" parent="iC18hV_ZK2HDQ8afC-E5-81">
          <mxGeometry width="30" height="30" as="geometry">
            <mxRectangle width="30" height="30" as="alternateBounds" />
          </mxGeometry>
        </mxCell>
        <mxCell id="iC18hV_ZK2HDQ8afC-E5-83" value="ROOM_TYPE" style="shape=partialRectangle;overflow=hidden;connectable=0;fillColor=none;top=0;left=0;bottom=0;right=0;align=left;spacingLeft=6;" vertex="1" parent="iC18hV_ZK2HDQ8afC-E5-81">
          <mxGeometry x="30" width="240" height="30" as="geometry">
            <mxRectangle width="240" height="30" as="alternateBounds" />
          </mxGeometry>
        </mxCell>
        <mxCell id="iC18hV_ZK2HDQ8afC-E5-84" value="" style="endArrow=none;html=1;rounded=0;entryX=1.006;entryY=-0.003;entryDx=0;entryDy=0;entryPerimeter=0;exitX=-0.007;exitY=-0.01;exitDx=0;exitDy=0;exitPerimeter=0;" edge="1" parent="iC18hV_ZK2HDQ8afC-E5-77">
          <mxGeometry width="50" height="50" relative="1" as="geometry">
            <mxPoint x="-1.7599999999999865" y="90.00000000000016" as="sourcePoint" />
            <mxPoint x="271.7500000000001" y="90.21000000000008" as="targetPoint" />
          </mxGeometry>
        </mxCell>
        <mxCell id="iC18hV_ZK2HDQ8afC-E5-85" style="shape=partialRectangle;collapsible=0;dropTarget=0;pointerEvents=0;fillColor=none;points=[[0,0.5],[1,0.5]];portConstraint=eastwest;top=0;left=0;right=0;bottom=0;" vertex="1" parent="iC18hV_ZK2HDQ8afC-E5-77">
          <mxGeometry y="90" width="270" height="30" as="geometry" />
        </mxCell>
        <mxCell id="iC18hV_ZK2HDQ8afC-E5-86" style="shape=partialRectangle;overflow=hidden;connectable=0;fillColor=none;top=0;left=0;bottom=0;right=0;" vertex="1" parent="iC18hV_ZK2HDQ8afC-E5-85">
          <mxGeometry width="30" height="30" as="geometry">
            <mxRectangle width="30" height="30" as="alternateBounds" />
          </mxGeometry>
        </mxCell>
        <mxCell id="iC18hV_ZK2HDQ8afC-E5-87" value="ROOM_AVAILABILITY_STATUS" style="shape=partialRectangle;overflow=hidden;connectable=0;fillColor=none;top=0;left=0;bottom=0;right=0;align=left;spacingLeft=6;" vertex="1" parent="iC18hV_ZK2HDQ8afC-E5-85">
          <mxGeometry x="30" width="240" height="30" as="geometry">
            <mxRectangle width="240" height="30" as="alternateBounds" />
          </mxGeometry>
        </mxCell>
        <mxCell id="iC18hV_ZK2HDQ8afC-E5-107" value="BILL" style="shape=table;startSize=30;container=1;collapsible=1;childLayout=tableLayout;fixedRows=1;rowLines=0;fontStyle=1;align=center;resizeLast=1;" vertex="1" parent="1">
          <mxGeometry x="510" y="350" width="270" height="150" as="geometry" />
        </mxCell>
        <mxCell id="iC18hV_ZK2HDQ8afC-E5-108" value="" style="shape=partialRectangle;collapsible=0;dropTarget=0;pointerEvents=0;fillColor=none;points=[[0,0.5],[1,0.5]];portConstraint=eastwest;top=0;left=0;right=0;bottom=1;" vertex="1" parent="iC18hV_ZK2HDQ8afC-E5-107">
          <mxGeometry y="30" width="270" height="30" as="geometry" />
        </mxCell>
        <mxCell id="iC18hV_ZK2HDQ8afC-E5-109" value="PK" style="shape=partialRectangle;overflow=hidden;connectable=0;fillColor=none;top=0;left=0;bottom=0;right=0;fontStyle=1;" vertex="1" parent="iC18hV_ZK2HDQ8afC-E5-108">
          <mxGeometry width="30" height="30" as="geometry">
            <mxRectangle width="30" height="30" as="alternateBounds" />
          </mxGeometry>
        </mxCell>
        <mxCell id="iC18hV_ZK2HDQ8afC-E5-110" value="BILL_ID" style="shape=partialRectangle;overflow=hidden;connectable=0;fillColor=none;top=0;left=0;bottom=0;right=0;align=left;spacingLeft=6;fontStyle=0;" vertex="1" parent="iC18hV_ZK2HDQ8afC-E5-108">
          <mxGeometry x="30" width="240" height="30" as="geometry">
            <mxRectangle width="240" height="30" as="alternateBounds" />
          </mxGeometry>
        </mxCell>
        <mxCell id="iC18hV_ZK2HDQ8afC-E5-111" style="shape=partialRectangle;collapsible=0;dropTarget=0;pointerEvents=0;fillColor=none;points=[[0,0.5],[1,0.5]];portConstraint=eastwest;top=0;left=0;right=0;bottom=0;" vertex="1" parent="iC18hV_ZK2HDQ8afC-E5-107">
          <mxGeometry y="60" width="270" height="30" as="geometry" />
        </mxCell>
        <mxCell id="iC18hV_ZK2HDQ8afC-E5-112" value="FK" style="shape=partialRectangle;overflow=hidden;connectable=0;fillColor=none;top=0;left=0;bottom=0;right=0;fontStyle=1" vertex="1" parent="iC18hV_ZK2HDQ8afC-E5-111">
          <mxGeometry width="30" height="30" as="geometry">
            <mxRectangle width="30" height="30" as="alternateBounds" />
          </mxGeometry>
        </mxCell>
        <mxCell id="iC18hV_ZK2HDQ8afC-E5-113" value="PAT_ID" style="shape=partialRectangle;overflow=hidden;connectable=0;fillColor=none;top=0;left=0;bottom=0;right=0;align=left;spacingLeft=6;" vertex="1" parent="iC18hV_ZK2HDQ8afC-E5-111">
          <mxGeometry x="30" width="240" height="30" as="geometry">
            <mxRectangle width="240" height="30" as="alternateBounds" />
          </mxGeometry>
        </mxCell>
        <mxCell id="iC18hV_ZK2HDQ8afC-E5-114" value="" style="endArrow=none;html=1;rounded=0;entryX=1.006;entryY=-0.003;entryDx=0;entryDy=0;entryPerimeter=0;exitX=-0.007;exitY=-0.01;exitDx=0;exitDy=0;exitPerimeter=0;" edge="1" parent="iC18hV_ZK2HDQ8afC-E5-107">
          <mxGeometry width="50" height="50" relative="1" as="geometry">
            <mxPoint x="-1.7599999999999865" y="90.00000000000016" as="sourcePoint" />
            <mxPoint x="271.7500000000001" y="90.21000000000008" as="targetPoint" />
          </mxGeometry>
        </mxCell>
        <mxCell id="iC18hV_ZK2HDQ8afC-E5-115" style="shape=partialRectangle;collapsible=0;dropTarget=0;pointerEvents=0;fillColor=none;points=[[0,0.5],[1,0.5]];portConstraint=eastwest;top=0;left=0;right=0;bottom=0;" vertex="1" parent="iC18hV_ZK2HDQ8afC-E5-107">
          <mxGeometry y="90" width="270" height="30" as="geometry" />
        </mxCell>
        <mxCell id="iC18hV_ZK2HDQ8afC-E5-116" style="shape=partialRectangle;overflow=hidden;connectable=0;fillColor=none;top=0;left=0;bottom=0;right=0;" vertex="1" parent="iC18hV_ZK2HDQ8afC-E5-115">
          <mxGeometry width="30" height="30" as="geometry">
            <mxRectangle width="30" height="30" as="alternateBounds" />
          </mxGeometry>
        </mxCell>
        <mxCell id="iC18hV_ZK2HDQ8afC-E5-117" value="BILL_TOTAL_AMOUNT" style="shape=partialRectangle;overflow=hidden;connectable=0;fillColor=none;top=0;left=0;bottom=0;right=0;align=left;spacingLeft=6;" vertex="1" parent="iC18hV_ZK2HDQ8afC-E5-115">
          <mxGeometry x="30" width="240" height="30" as="geometry">
            <mxRectangle width="240" height="30" as="alternateBounds" />
          </mxGeometry>
        </mxCell>
        <mxCell id="iC18hV_ZK2HDQ8afC-E5-118" value="" style="shape=partialRectangle;collapsible=0;dropTarget=0;pointerEvents=0;fillColor=none;points=[[0,0.5],[1,0.5]];portConstraint=eastwest;top=0;left=0;right=0;bottom=0;" vertex="1" parent="iC18hV_ZK2HDQ8afC-E5-107">
          <mxGeometry y="120" width="270" height="30" as="geometry" />
        </mxCell>
        <mxCell id="iC18hV_ZK2HDQ8afC-E5-119" value="" style="shape=partialRectangle;overflow=hidden;connectable=0;fillColor=none;top=0;left=0;bottom=0;right=0;" vertex="1" parent="iC18hV_ZK2HDQ8afC-E5-118">
          <mxGeometry width="30" height="30" as="geometry">
            <mxRectangle width="30" height="30" as="alternateBounds" />
          </mxGeometry>
        </mxCell>
        <mxCell id="iC18hV_ZK2HDQ8afC-E5-120" value="BILL_PAYMENT_STATUS" style="shape=partialRectangle;overflow=hidden;connectable=0;fillColor=none;top=0;left=0;bottom=0;right=0;align=left;spacingLeft=6;" vertex="1" parent="iC18hV_ZK2HDQ8afC-E5-118">
          <mxGeometry x="30" width="240" height="30" as="geometry">
            <mxRectangle width="240" height="30" as="alternateBounds" />
          </mxGeometry>
        </mxCell>
        <mxCell id="iC18hV_ZK2HDQ8afC-E5-121" value="" style="endArrow=none;html=1;rounded=0;entryX=1;entryY=0;entryDx=0;entryDy=0;entryPerimeter=0;exitX=-0.009;exitY=0.99;exitDx=0;exitDy=0;exitPerimeter=0;" edge="1" parent="iC18hV_ZK2HDQ8afC-E5-107" target="iC18hV_ZK2HDQ8afC-E5-118" source="iC18hV_ZK2HDQ8afC-E5-115">
          <mxGeometry width="50" height="50" relative="1" as="geometry">
            <mxPoint x="-20" y="100" as="sourcePoint" />
            <mxPoint x="20" y="60" as="targetPoint" />
          </mxGeometry>
        </mxCell>
        <mxCell id="iC18hV_ZK2HDQ8afC-E5-128" value="" style="endArrow=none;html=1;rounded=0;" edge="1" parent="1">
          <mxGeometry width="50" height="50" relative="1" as="geometry">
            <mxPoint x="30" y="610" as="sourcePoint" />
            <mxPoint x="300" y="610" as="targetPoint" />
          </mxGeometry>
        </mxCell>
        <mxCell id="iC18hV_ZK2HDQ8afC-E5-132" style="edgeStyle=orthogonalEdgeStyle;rounded=0;orthogonalLoop=1;jettySize=auto;html=1;exitX=-0.005;exitY=0.338;exitDx=0;exitDy=0;entryX=0;entryY=0.667;entryDx=0;entryDy=0;entryPerimeter=0;endArrow=ERmany;endFill=0;startArrow=ERone;startFill=0;exitPerimeter=0;" edge="1" parent="1" source="iC18hV_ZK2HDQ8afC-E5-138" target="iC18hV_ZK2HDQ8afC-E5-51">
          <mxGeometry relative="1" as="geometry">
            <mxPoint x="30" y="205" as="sourcePoint" />
          </mxGeometry>
        </mxCell>
        <mxCell id="iC18hV_ZK2HDQ8afC-E5-133" style="edgeStyle=orthogonalEdgeStyle;rounded=0;orthogonalLoop=1;jettySize=auto;html=1;exitX=0;exitY=0.5;exitDx=0;exitDy=0;entryX=1;entryY=0.5;entryDx=0;entryDy=0;startArrow=ERone;startFill=0;endArrow=ERmany;endFill=0;" edge="1" parent="1" source="iC18hV_ZK2HDQ8afC-E5-33" target="iC18hV_ZK2HDQ8afC-E5-55">
          <mxGeometry relative="1" as="geometry" />
        </mxCell>
        <mxCell id="iC18hV_ZK2HDQ8afC-E5-134" style="edgeStyle=orthogonalEdgeStyle;rounded=0;orthogonalLoop=1;jettySize=auto;html=1;startArrow=ERoneToMany;startFill=0;endArrow=ERone;endFill=0;" edge="1" parent="1" target="iC18hV_ZK2HDQ8afC-E5-78">
          <mxGeometry relative="1" as="geometry">
            <mxPoint x="300" y="200" as="sourcePoint" />
            <mxPoint x="470" y="372" as="targetPoint" />
            <Array as="points">
              <mxPoint x="330" y="200" />
              <mxPoint x="330" y="140" />
              <mxPoint x="470" y="140" />
              <mxPoint x="470" y="205" />
            </Array>
          </mxGeometry>
        </mxCell>
        <mxCell id="iC18hV_ZK2HDQ8afC-E5-135" style="edgeStyle=orthogonalEdgeStyle;rounded=0;orthogonalLoop=1;jettySize=auto;html=1;exitX=0;exitY=0.5;exitDx=0;exitDy=0;startArrow=ERmany;startFill=0;endArrow=ERone;endFill=0;entryX=1;entryY=0.333;entryDx=0;entryDy=0;entryPerimeter=0;" edge="1" parent="1">
          <mxGeometry relative="1" as="geometry">
            <mxPoint x="510" y="435.01" as="sourcePoint" />
            <mxPoint x="300.0000000000001" y="210" as="targetPoint" />
            <Array as="points">
              <mxPoint x="375" y="435.01" />
              <mxPoint x="375" y="210.01" />
            </Array>
          </mxGeometry>
        </mxCell>
        <mxCell id="iC18hV_ZK2HDQ8afC-E5-145" value="" style="whiteSpace=wrap;html=1;aspect=fixed;" vertex="1" parent="1">
          <mxGeometry x="40" y="720" width="420" height="420" as="geometry" />
        </mxCell>
        <mxCell id="iC18hV_ZK2HDQ8afC-E5-146" value="&lt;h1 style=&quot;margin-top: 0px;&quot;&gt;&lt;font size=&quot;1&quot;&gt;Patient &amp;amp; Appointment (1:M) A patient can book multiple appointments with doctors. One appointment is linked to only one patient. Cardinality: 1 Patient → M&lt;/font&gt;&lt;/h1&gt;&lt;h1 style=&quot;margin-top: 0px;&quot;&gt;&lt;font size=&quot;1&quot;&gt;&amp;nbsp;Appointments Doctor &amp;amp; Appointment (1:M) A doctor can have multiple appointments with different patients. Each appointment is associated with one specific doctor. Cardinality: 1 Doctor → M Appointments&amp;nbsp;&lt;/font&gt;&lt;/h1&gt;&lt;h1 style=&quot;margin-top: 0px;&quot;&gt;&lt;font size=&quot;1&quot;&gt;Patient &amp;amp; Room (1:1 or 1:M depending on Room Type) A patient or Many patients can be assigned to only one room at a time . A room may be&amp;nbsp; occupied by one or many patients. Cardinality: 1 Patient → 1 Room (1:1) or 1:M :&amp;nbsp;&lt;/font&gt;&lt;span style=&quot;font-size: x-small; background-color: transparent; color: light-dark(rgb(0, 0, 0), rgb(255, 255, 255));&quot;&gt;1 Patient → M Room&lt;/span&gt;&lt;/h1&gt;&lt;h1 style=&quot;margin-top: 0px;&quot;&gt;&lt;font size=&quot;1&quot;&gt;&amp;nbsp;Patient &amp;amp; Billing (1:M) A patient can have multiple bills if they visit the hospital multiple times. Each bill is associated with one patient. Cardinality: 1 Patient → M Bills&lt;/font&gt;&lt;/h1&gt;" style="text;html=1;whiteSpace=wrap;overflow=hidden;rounded=0;" vertex="1" parent="1">
          <mxGeometry x="50" y="710" width="350" height="420" as="geometry" />
        </mxCell>
        <mxCell id="iC18hV_ZK2HDQ8afC-E5-147" value="1 or M:1" style="ellipse;shape=cloud;whiteSpace=wrap;html=1;" vertex="1" parent="1">
          <mxGeometry x="390" y="70" width="80" height="50" as="geometry" />
        </mxCell>
        <mxCell id="iC18hV_ZK2HDQ8afC-E5-148" value="1:M" style="ellipse;shape=cloud;whiteSpace=wrap;html=1;" vertex="1" parent="1">
          <mxGeometry x="390" y="350" width="80" height="50" as="geometry" />
        </mxCell>
        <mxCell id="iC18hV_ZK2HDQ8afC-E5-149" value="Depends on room type" style="text;html=1;align=center;verticalAlign=middle;resizable=0;points=[];autosize=1;strokeColor=none;fillColor=none;" vertex="1" parent="1">
          <mxGeometry x="470" y="80" width="140" height="30" as="geometry" />
        </mxCell>
        <mxCell id="iC18hV_ZK2HDQ8afC-E5-150" value="1:M" style="ellipse;shape=cloud;whiteSpace=wrap;html=1;" vertex="1" parent="1">
          <mxGeometry x="310" y="640" width="80" height="50" as="geometry" />
        </mxCell>
        <mxCell id="iC18hV_ZK2HDQ8afC-E5-151" value="1:M" style="ellipse;shape=cloud;whiteSpace=wrap;html=1;" vertex="1" parent="1">
          <mxGeometry x="30" y="390" width="80" height="50" as="geometry" />
        </mxCell>
      </root>
    </mxGraphModel>
  </diagram>
</mxfile>
